<?xml version="1.0" encoding="iso-8859-1"?>
<!-- Generator: Adobe Illustrator 19.0.0, SVG Export Plug-In . SVG Version: 6.00 Build 0)  -->
<svg version="1.1" id="Layer_1" xmlns="http://www.w3.org/2000/svg" xmlns:xlink="http://www.w3.org/1999/xlink" x="0px" y="0px"
	 viewBox="0 0 485 485" style="enable-background:new 0 0 485 485;" xml:space="preserve">
<g>
	<path d="M193.536,240.999c47.145,0,85.499-38.355,85.499-85.5S240.681,70,193.536,70s-85.5,38.355-85.5,85.5
		S146.392,240.999,193.536,240.999z M193.536,100c30.603,0,55.499,24.897,55.499,55.5s-24.896,55.5-55.499,55.5
		s-55.5-24.897-55.5-55.5S162.934,100,193.536,100z"/>
	<path d="M360,338.882c30.327,0,55-24.673,55-55s-24.673-55-55-55s-55,24.673-55,55S329.673,338.882,360,338.882z M360,258.882
		c13.785,0,25,11.215,25,25s-11.215,25-25,25s-25-11.215-25-25S346.215,258.882,360,258.882z"/>
	<path d="M0,0v485h100v-15c0-37.771,30.729-68.5,68.5-68.5S237,432.229,237,470v15h248V0H0z M455,455H265.86
		c-7.245-47.22-48.146-83.5-97.36-83.5S78.385,407.78,71.14,455H30V30h425V455z"/>
</g>
<g>
</g>
<g>
</g>
<g>
</g>
<g>
</g>
<g>
</g>
<g>
</g>
<g>
</g>
<g>
</g>
<g>
</g>
<g>
</g>
<g>
</g>
<g>
</g>
<g>
</g>
<g>
</g>
<g>
</g>
</svg>
